<svg xmlns="http://www.w3.org/2000/svg" xmlns:xlink="http://www.w3.org/1999/xlink" width="500" zoomAndPan="magnify" viewBox="0 0 375 374.999991" height="500" preserveAspectRatio="xMidYMid meet" version="1.0"><defs><g/></defs><g fill="#000000" fill-opacity="1"><g transform="translate(121.93389, 209.4248)"><g><path d="M 87.03125 -35.015625 C 86.21875 -27.765625 83.742188 -21.335938 79.609375 -15.734375 C 75.484375 -10.140625 70.101562 -5.84375 63.46875 -2.84375 C 56.84375 0.15625 49.6875 1.582031 42 1.4375 C 35.082031 1.289062 29.054688 -0.300781 23.921875 -3.34375 C 18.785156 -6.394531 14.738281 -10.816406 11.78125 -16.609375 C 8.820312 -22.398438 7.148438 -29.066406 6.765625 -36.609375 C 6.429688 -42.515625 7.046875 -49.859375 8.609375 -58.640625 C 10.171875 -67.429688 12.957031 -75.238281 16.96875 -82.0625 C 20.976562 -88.882812 25.742188 -94.289062 31.265625 -98.28125 C 39.046875 -103.851562 47.9375 -106.539062 57.9375 -106.34375 C 68.789062 -106.15625 77.398438 -102.804688 83.765625 -96.296875 C 90.128906 -89.785156 93.625 -80.742188 94.25 -69.171875 L 73.203125 -69.234375 C 73.203125 -75.867188 71.878906 -80.722656 69.234375 -83.796875 C 66.597656 -86.867188 62.492188 -88.503906 56.921875 -88.703125 C 49.710938 -88.941406 43.789062 -86.367188 39.15625 -80.984375 C 34.519531 -75.609375 31.410156 -67.753906 29.828125 -57.421875 C 28.296875 -47.378906 27.625 -39.863281 27.8125 -34.875 C 28.050781 -28.53125 29.46875 -23.859375 32.0625 -20.859375 C 34.65625 -17.859375 38.28125 -16.285156 42.9375 -16.140625 C 49.375 -15.898438 54.523438 -17.425781 58.390625 -20.71875 C 62.265625 -24.007812 64.828125 -28.726562 66.078125 -34.875 Z M 87.03125 -35.015625 "/></g></g></g><g fill="#000000" fill-opacity="1"><g transform="translate(171.184124, 262.918855)"><g><path d="M 1.515625 0 L 19.75 -104.90625 L 49.859375 -104.828125 C 56.921875 -104.691406 63.273438 -103.097656 68.921875 -100.046875 C 74.566406 -96.992188 79.140625 -92.609375 82.640625 -86.890625 C 86.148438 -81.179688 88.265625 -74.742188 88.984375 -67.578125 C 89.367188 -63.398438 89.320312 -59.128906 88.84375 -54.765625 L 88.328125 -50.9375 C 86.222656 -35.570312 80.1875 -23.238281 70.21875 -13.9375 C 60.25 -4.644531 48.15625 0 33.9375 0 Z M 37.828125 -87.40625 L 25.65625 -17.359375 L 34.4375 -17.296875 C 44.144531 -17.296875 51.9375 -20.847656 57.8125 -27.953125 C 63.695312 -35.066406 67.070312 -45.800781 67.9375 -60.15625 L 68.09375 -62.46875 C 68.238281 -70.394531 66.722656 -76.46875 63.546875 -80.6875 C 60.378906 -84.914062 55.648438 -87.128906 49.359375 -87.328125 Z M 37.828125 -87.40625 "/></g></g></g><g fill="#000000" fill-opacity="1"><g transform="translate(116.361108, 283.504079)"><g><path d="M 5.5 -7.453125 C 4.96875 -7.453125 4.488281 -7.285156 4.0625 -6.953125 C 3.632812 -6.628906 3.289062 -6.148438 3.03125 -5.515625 C 2.769531 -4.878906 2.640625 -4.191406 2.640625 -3.453125 C 2.640625 -2.773438 2.773438 -2.269531 3.046875 -1.9375 C 3.328125 -1.613281 3.773438 -1.453125 4.390625 -1.453125 C 4.972656 -1.453125 5.65625 -1.609375 6.4375 -1.921875 L 6.4375 -0.34375 C 5.632812 -0.03125 4.820312 0.125 4 0.125 C 2.976562 0.125 2.179688 -0.175781 1.609375 -0.78125 C 1.035156 -1.394531 0.75 -2.253906 0.75 -3.359375 C 0.75 -4.421875 0.957031 -5.398438 1.375 -6.296875 C 1.800781 -7.191406 2.363281 -7.867188 3.0625 -8.328125 C 3.769531 -8.796875 4.582031 -9.03125 5.5 -9.03125 C 6.007812 -9.03125 6.457031 -8.984375 6.84375 -8.890625 C 7.238281 -8.796875 7.664062 -8.628906 8.125 -8.390625 L 7.40625 -6.875 C 6.96875 -7.113281 6.609375 -7.269531 6.328125 -7.34375 C 6.054688 -7.414062 5.78125 -7.453125 5.5 -7.453125 Z M 5.5 -7.453125 "/></g></g><g transform="translate(123.975799, 283.504079)"><g><path d="M 8.703125 -5.703125 C 8.703125 -4.554688 8.5 -3.53125 8.09375 -2.625 C 7.695312 -1.71875 7.148438 -1.03125 6.453125 -0.5625 C 5.753906 -0.101562 4.953125 0.125 4.046875 0.125 C 3.015625 0.125 2.207031 -0.171875 1.625 -0.765625 C 1.039062 -1.367188 0.75 -2.203125 0.75 -3.265625 C 0.75 -4.335938 0.945312 -5.320312 1.34375 -6.21875 C 1.75 -7.125 2.300781 -7.816406 3 -8.296875 C 3.707031 -8.785156 4.523438 -9.03125 5.453125 -9.03125 C 6.484375 -9.03125 7.28125 -8.738281 7.84375 -8.15625 C 8.414062 -7.570312 8.703125 -6.753906 8.703125 -5.703125 Z M 5.296875 -7.453125 C 4.804688 -7.453125 4.359375 -7.265625 3.953125 -6.890625 C 3.546875 -6.523438 3.222656 -6.019531 2.984375 -5.375 C 2.753906 -4.726562 2.640625 -4.023438 2.640625 -3.265625 C 2.640625 -2.671875 2.773438 -2.21875 3.046875 -1.90625 C 3.316406 -1.601562 3.695312 -1.453125 4.1875 -1.453125 C 4.675781 -1.453125 5.117188 -1.628906 5.515625 -1.984375 C 5.921875 -2.335938 6.238281 -2.835938 6.46875 -3.484375 C 6.695312 -4.128906 6.8125 -4.851562 6.8125 -5.65625 C 6.8125 -6.226562 6.675781 -6.671875 6.40625 -6.984375 C 6.144531 -7.296875 5.773438 -7.453125 5.296875 -7.453125 Z M 5.296875 -7.453125 "/></g></g><g transform="translate(133.061165, 283.504079)"><g><path d="M 7.578125 0 L 5.5 0 L 3.34375 -6.71875 L 3.296875 -6.71875 L 3.28125 -6.53125 C 3.144531 -5.65625 3.007812 -4.875 2.875 -4.1875 L 2 0 L 0.328125 0 L 2.203125 -8.890625 L 4.375 -8.890625 L 6.4375 -2.34375 L 6.46875 -2.34375 C 6.507812 -2.644531 6.582031 -3.082031 6.6875 -3.65625 C 6.800781 -4.226562 7.171875 -5.972656 7.796875 -8.890625 L 9.46875 -8.890625 Z M 7.578125 0 "/></g></g><g transform="translate(142.456466, 283.504079)"><g><path d="M 3.46875 0 L 1.625 0 L 3.15625 -7.328125 L 1.015625 -7.328125 L 1.359375 -8.890625 L 7.5 -8.890625 L 7.15625 -7.328125 L 5.015625 -7.328125 Z M 3.46875 0 "/></g></g><g transform="translate(149.062348, 283.504079)"><g><path d="M 3.21875 -4.9375 L 3.703125 -4.9375 C 4.234375 -4.9375 4.644531 -5.050781 4.9375 -5.28125 C 5.226562 -5.519531 5.375 -5.875 5.375 -6.34375 C 5.375 -6.675781 5.273438 -6.925781 5.078125 -7.09375 C 4.890625 -7.257812 4.59375 -7.34375 4.1875 -7.34375 L 3.734375 -7.34375 Z M 2.90625 -3.40625 L 2.171875 0 L 0.328125 0 L 2.203125 -8.890625 L 4.390625 -8.890625 C 5.347656 -8.890625 6.066406 -8.679688 6.546875 -8.265625 C 7.023438 -7.859375 7.265625 -7.253906 7.265625 -6.453125 C 7.265625 -5.804688 7.097656 -5.253906 6.765625 -4.796875 C 6.429688 -4.335938 5.945312 -4 5.3125 -3.78125 L 6.90625 0 L 4.875 0 L 3.625 -3.40625 Z M 2.90625 -3.40625 "/></g></g><g transform="translate(156.640576, 283.504079)"><g><path d="M 8.703125 -5.703125 C 8.703125 -4.554688 8.5 -3.53125 8.09375 -2.625 C 7.695312 -1.71875 7.148438 -1.03125 6.453125 -0.5625 C 5.753906 -0.101562 4.953125 0.125 4.046875 0.125 C 3.015625 0.125 2.207031 -0.171875 1.625 -0.765625 C 1.039062 -1.367188 0.75 -2.203125 0.75 -3.265625 C 0.75 -4.335938 0.945312 -5.320312 1.34375 -6.21875 C 1.75 -7.125 2.300781 -7.816406 3 -8.296875 C 3.707031 -8.785156 4.523438 -9.03125 5.453125 -9.03125 C 6.484375 -9.03125 7.28125 -8.738281 7.84375 -8.15625 C 8.414062 -7.570312 8.703125 -6.753906 8.703125 -5.703125 Z M 5.296875 -7.453125 C 4.804688 -7.453125 4.359375 -7.265625 3.953125 -6.890625 C 3.546875 -6.523438 3.222656 -6.019531 2.984375 -5.375 C 2.753906 -4.726562 2.640625 -4.023438 2.640625 -3.265625 C 2.640625 -2.671875 2.773438 -2.21875 3.046875 -1.90625 C 3.316406 -1.601562 3.695312 -1.453125 4.1875 -1.453125 C 4.675781 -1.453125 5.117188 -1.628906 5.515625 -1.984375 C 5.921875 -2.335938 6.238281 -2.835938 6.46875 -3.484375 C 6.695312 -4.128906 6.8125 -4.851562 6.8125 -5.65625 C 6.8125 -6.226562 6.675781 -6.671875 6.40625 -6.984375 C 6.144531 -7.296875 5.773438 -7.453125 5.296875 -7.453125 Z M 5.296875 -7.453125 "/></g></g><g transform="translate(165.725942, 283.504079)"><g><path d="M 0.328125 0 L 2.203125 -8.890625 L 4.0625 -8.890625 L 2.5 -1.5625 L 5.625 -1.5625 L 5.296875 0 Z M 0.328125 0 "/></g></g><g transform="translate(172.173817, 283.504079)"><g><path d="M 5.296875 0 L 0.328125 0 L 2.203125 -8.890625 L 7.171875 -8.890625 L 6.84375 -7.34375 L 3.734375 -7.34375 L 3.328125 -5.390625 L 6.234375 -5.390625 L 5.890625 -3.84375 L 2.984375 -3.84375 L 2.5 -1.5625 L 5.625 -1.5625 Z M 5.296875 0 "/></g></g><g transform="translate(178.919473, 283.504079)"><g/></g><g transform="translate(182.152526, 283.504079)"><g><path d="M 8.046875 -5.53125 C 8.046875 -4.394531 7.847656 -3.40625 7.453125 -2.5625 C 7.054688 -1.726562 6.476562 -1.09375 5.71875 -0.65625 C 4.96875 -0.21875 4.082031 0 3.0625 0 L 0.328125 0 L 2.203125 -8.890625 L 4.609375 -8.890625 C 5.703125 -8.890625 6.546875 -8.597656 7.140625 -8.015625 C 7.742188 -7.441406 8.046875 -6.613281 8.046875 -5.53125 Z M 3.15625 -1.5625 C 3.75 -1.5625 4.269531 -1.710938 4.71875 -2.015625 C 5.164062 -2.328125 5.515625 -2.78125 5.765625 -3.375 C 6.015625 -3.976562 6.140625 -4.664062 6.140625 -5.4375 C 6.140625 -6.050781 5.992188 -6.519531 5.703125 -6.84375 C 5.410156 -7.175781 4.988281 -7.34375 4.4375 -7.34375 L 3.734375 -7.34375 L 2.5 -1.5625 Z M 3.15625 -1.5625 "/></g></g><g transform="translate(190.575481, 283.504079)"><g><path d="M 5.296875 0 L 0.328125 0 L 2.203125 -8.890625 L 7.171875 -8.890625 L 6.84375 -7.34375 L 3.734375 -7.34375 L 3.328125 -5.390625 L 6.234375 -5.390625 L 5.890625 -3.84375 L 2.984375 -3.84375 L 2.5 -1.5625 L 5.625 -1.5625 Z M 5.296875 0 "/></g></g><g transform="translate(197.321137, 283.504079)"><g/></g><g transform="translate(200.55419, 283.504079)"><g><path d="M 8.046875 -5.53125 C 8.046875 -4.394531 7.847656 -3.40625 7.453125 -2.5625 C 7.054688 -1.726562 6.476562 -1.09375 5.71875 -0.65625 C 4.96875 -0.21875 4.082031 0 3.0625 0 L 0.328125 0 L 2.203125 -8.890625 L 4.609375 -8.890625 C 5.703125 -8.890625 6.546875 -8.597656 7.140625 -8.015625 C 7.742188 -7.441406 8.046875 -6.613281 8.046875 -5.53125 Z M 3.15625 -1.5625 C 3.75 -1.5625 4.269531 -1.710938 4.71875 -2.015625 C 5.164062 -2.328125 5.515625 -2.78125 5.765625 -3.375 C 6.015625 -3.976562 6.140625 -4.664062 6.140625 -5.4375 C 6.140625 -6.050781 5.992188 -6.519531 5.703125 -6.84375 C 5.410156 -7.175781 4.988281 -7.34375 4.4375 -7.34375 L 3.734375 -7.34375 L 2.5 -1.5625 Z M 3.15625 -1.5625 "/></g></g><g transform="translate(208.977145, 283.504079)"><g><path d="M 5.296875 0 L 0.328125 0 L 2.203125 -8.890625 L 7.171875 -8.890625 L 6.84375 -7.34375 L 3.734375 -7.34375 L 3.328125 -5.390625 L 6.234375 -5.390625 L 5.890625 -3.84375 L 2.984375 -3.84375 L 2.5 -1.5625 L 5.625 -1.5625 Z M 5.296875 0 "/></g></g><g transform="translate(215.722801, 283.504079)"><g><path d="M 5.75 -2.625 C 5.75 -1.78125 5.445312 -1.109375 4.84375 -0.609375 C 4.25 -0.117188 3.4375 0.125 2.40625 0.125 C 1.507812 0.125 0.789062 -0.0546875 0.25 -0.421875 L 0.25 -2.09375 C 1.03125 -1.65625 1.753906 -1.4375 2.421875 -1.4375 C 2.878906 -1.4375 3.234375 -1.519531 3.484375 -1.6875 C 3.742188 -1.863281 3.875 -2.101562 3.875 -2.40625 C 3.875 -2.570312 3.84375 -2.722656 3.78125 -2.859375 C 3.726562 -2.992188 3.648438 -3.117188 3.546875 -3.234375 C 3.453125 -3.347656 3.203125 -3.550781 2.796875 -3.84375 C 2.242188 -4.25 1.851562 -4.644531 1.625 -5.03125 C 1.394531 -5.425781 1.28125 -5.851562 1.28125 -6.3125 C 1.28125 -6.832031 1.40625 -7.296875 1.65625 -7.703125 C 1.90625 -8.117188 2.257812 -8.441406 2.71875 -8.671875 C 3.1875 -8.898438 3.722656 -9.015625 4.328125 -9.015625 C 5.210938 -9.015625 6.019531 -8.816406 6.75 -8.421875 L 6.09375 -7 C 5.457031 -7.300781 4.867188 -7.453125 4.328125 -7.453125 C 3.992188 -7.453125 3.71875 -7.359375 3.5 -7.171875 C 3.289062 -6.992188 3.1875 -6.753906 3.1875 -6.453125 C 3.1875 -6.203125 3.253906 -5.984375 3.390625 -5.796875 C 3.523438 -5.617188 3.820312 -5.378906 4.28125 -5.078125 C 4.769531 -4.742188 5.132812 -4.378906 5.375 -3.984375 C 5.625 -3.597656 5.75 -3.144531 5.75 -2.625 Z M 5.75 -2.625 "/></g></g><g transform="translate(222.316528, 283.504079)"><g><path d="M 3.171875 -4.703125 L 3.515625 -4.703125 C 4.085938 -4.703125 4.539062 -4.84375 4.875 -5.125 C 5.207031 -5.40625 5.375 -5.78125 5.375 -6.25 C 5.375 -6.976562 4.976562 -7.34375 4.1875 -7.34375 L 3.734375 -7.34375 Z M 7.234375 -6.296875 C 7.234375 -5.316406 6.890625 -4.546875 6.203125 -3.984375 C 5.515625 -3.429688 4.566406 -3.15625 3.359375 -3.15625 L 2.84375 -3.15625 L 2.171875 0 L 0.328125 0 L 2.203125 -8.890625 L 4.25 -8.890625 C 5.238281 -8.890625 5.984375 -8.671875 6.484375 -8.234375 C 6.984375 -7.804688 7.234375 -7.160156 7.234375 -6.296875 Z M 7.234375 -6.296875 "/></g></g><g transform="translate(229.536204, 283.504079)"><g><path d="M 5.296875 0 L 0.328125 0 L 2.203125 -8.890625 L 7.171875 -8.890625 L 6.84375 -7.34375 L 3.734375 -7.34375 L 3.328125 -5.390625 L 6.234375 -5.390625 L 5.890625 -3.84375 L 2.984375 -3.84375 L 2.5 -1.5625 L 5.625 -1.5625 Z M 5.296875 0 "/></g></g><g transform="translate(236.28186, 283.504079)"><g><path d="M 5.75 -2.625 C 5.75 -1.78125 5.445312 -1.109375 4.84375 -0.609375 C 4.25 -0.117188 3.4375 0.125 2.40625 0.125 C 1.507812 0.125 0.789062 -0.0546875 0.25 -0.421875 L 0.25 -2.09375 C 1.03125 -1.65625 1.753906 -1.4375 2.421875 -1.4375 C 2.878906 -1.4375 3.234375 -1.519531 3.484375 -1.6875 C 3.742188 -1.863281 3.875 -2.101562 3.875 -2.40625 C 3.875 -2.570312 3.84375 -2.722656 3.78125 -2.859375 C 3.726562 -2.992188 3.648438 -3.117188 3.546875 -3.234375 C 3.453125 -3.347656 3.203125 -3.550781 2.796875 -3.84375 C 2.242188 -4.25 1.851562 -4.644531 1.625 -5.03125 C 1.394531 -5.425781 1.28125 -5.851562 1.28125 -6.3125 C 1.28125 -6.832031 1.40625 -7.296875 1.65625 -7.703125 C 1.90625 -8.117188 2.257812 -8.441406 2.71875 -8.671875 C 3.1875 -8.898438 3.722656 -9.015625 4.328125 -9.015625 C 5.210938 -9.015625 6.019531 -8.816406 6.75 -8.421875 L 6.09375 -7 C 5.457031 -7.300781 4.867188 -7.453125 4.328125 -7.453125 C 3.992188 -7.453125 3.71875 -7.359375 3.5 -7.171875 C 3.289062 -6.992188 3.1875 -6.753906 3.1875 -6.453125 C 3.1875 -6.203125 3.253906 -5.984375 3.390625 -5.796875 C 3.523438 -5.617188 3.820312 -5.378906 4.28125 -5.078125 C 4.769531 -4.742188 5.132812 -4.378906 5.375 -3.984375 C 5.625 -3.597656 5.75 -3.144531 5.75 -2.625 Z M 5.75 -2.625 "/></g></g><g transform="translate(242.875587, 283.504079)"><g><path d="M 5.125 -2.109375 L 2.25 -2.109375 L 1.203125 0 L -0.75 0 L 3.90625 -8.921875 L 6.171875 -8.921875 L 7.078125 0 L 5.265625 0 Z M 5.03125 -3.703125 L 4.875 -5.828125 C 4.832031 -6.359375 4.8125 -6.867188 4.8125 -7.359375 L 4.8125 -7.578125 C 4.632812 -7.097656 4.410156 -6.582031 4.140625 -6.03125 L 3 -3.703125 Z M 5.03125 -3.703125 "/></g></g><g transform="translate(250.690825, 283.504079)"><g><path d="M 5.75 -2.625 C 5.75 -1.78125 5.445312 -1.109375 4.84375 -0.609375 C 4.25 -0.117188 3.4375 0.125 2.40625 0.125 C 1.507812 0.125 0.789062 -0.0546875 0.25 -0.421875 L 0.25 -2.09375 C 1.03125 -1.65625 1.753906 -1.4375 2.421875 -1.4375 C 2.878906 -1.4375 3.234375 -1.519531 3.484375 -1.6875 C 3.742188 -1.863281 3.875 -2.101562 3.875 -2.40625 C 3.875 -2.570312 3.84375 -2.722656 3.78125 -2.859375 C 3.726562 -2.992188 3.648438 -3.117188 3.546875 -3.234375 C 3.453125 -3.347656 3.203125 -3.550781 2.796875 -3.84375 C 2.242188 -4.25 1.851562 -4.644531 1.625 -5.03125 C 1.394531 -5.425781 1.28125 -5.851562 1.28125 -6.3125 C 1.28125 -6.832031 1.40625 -7.296875 1.65625 -7.703125 C 1.90625 -8.117188 2.257812 -8.441406 2.71875 -8.671875 C 3.1875 -8.898438 3.722656 -9.015625 4.328125 -9.015625 C 5.210938 -9.015625 6.019531 -8.816406 6.75 -8.421875 L 6.09375 -7 C 5.457031 -7.300781 4.867188 -7.453125 4.328125 -7.453125 C 3.992188 -7.453125 3.71875 -7.359375 3.5 -7.171875 C 3.289062 -6.992188 3.1875 -6.753906 3.1875 -6.453125 C 3.1875 -6.203125 3.253906 -5.984375 3.390625 -5.796875 C 3.523438 -5.617188 3.820312 -5.378906 4.28125 -5.078125 C 4.769531 -4.742188 5.132812 -4.378906 5.375 -3.984375 C 5.625 -3.597656 5.75 -3.144531 5.75 -2.625 Z M 5.75 -2.625 "/></g></g></g></svg>