<svg xmlns="http://www.w3.org/2000/svg" xmlns:xlink="http://www.w3.org/1999/xlink" width="500" zoomAndPan="magnify" viewBox="0 0 375 374.999991" height="500" preserveAspectRatio="xMidYMid meet" version="1.0"><defs><g/></defs><g fill="#000000" fill-opacity="1"><g transform="translate(88.829713, 220.49461)"><g><path d="M 130.984375 -52.703125 C 129.753906 -41.785156 126.03125 -32.113281 119.8125 -23.6875 C 113.59375 -15.269531 105.492188 -8.800781 95.515625 -4.28125 C 85.546875 0.238281 74.78125 2.390625 63.21875 2.171875 C 52.800781 1.953125 43.722656 -0.445312 35.984375 -5.03125 C 28.253906 -9.625 22.164062 -16.273438 17.71875 -24.984375 C 13.28125 -33.703125 10.769531 -43.734375 10.1875 -55.078125 C 9.6875 -63.972656 10.609375 -75.035156 12.953125 -88.265625 C 15.304688 -101.492188 19.5 -113.238281 25.53125 -123.5 C 31.570312 -133.757812 38.75 -141.890625 47.0625 -147.890625 C 58.769531 -156.273438 72.140625 -160.328125 87.171875 -160.046875 C 103.515625 -159.753906 116.472656 -154.707031 126.046875 -144.90625 C 135.628906 -135.113281 140.890625 -121.507812 141.828125 -104.09375 L 110.15625 -104.203125 C 110.15625 -114.171875 108.164062 -121.46875 104.1875 -126.09375 C 100.21875 -130.726562 94.039062 -133.1875 85.65625 -133.46875 C 74.8125 -133.832031 65.898438 -129.96875 58.921875 -121.875 C 51.953125 -113.78125 47.273438 -101.960938 44.890625 -86.421875 C 42.578125 -71.304688 41.566406 -59.992188 41.859375 -52.484375 C 42.210938 -42.941406 44.34375 -35.910156 48.25 -31.390625 C 52.15625 -26.867188 57.613281 -24.5 64.625 -24.28125 C 74.3125 -23.925781 82.0625 -26.222656 87.875 -31.171875 C 93.695312 -36.117188 97.546875 -43.222656 99.421875 -52.484375 Z M 130.984375 -52.703125 "/></g></g></g><g fill="#000000" fill-opacity="1"><g transform="translate(162.946297, 300.99767)"><g><path d="M 2.28125 0 L 29.703125 -157.875 L 75.03125 -157.765625 C 85.65625 -157.546875 95.210938 -155.140625 103.703125 -150.546875 C 112.203125 -145.960938 119.085938 -139.367188 124.359375 -130.765625 C 129.640625 -122.160156 132.820312 -112.472656 133.90625 -101.703125 C 134.488281 -95.410156 134.414062 -88.976562 133.6875 -82.40625 L 132.9375 -76.65625 C 129.75 -53.53125 120.65625 -34.972656 105.65625 -20.984375 C 90.664062 -6.992188 72.46875 0 51.0625 0 Z M 56.921875 -131.53125 L 38.59375 -26.125 L 51.828125 -26.015625 C 66.429688 -26.015625 78.160156 -31.363281 87.015625 -42.0625 C 95.867188 -52.769531 100.945312 -68.925781 102.25 -90.53125 L 102.46875 -94.015625 C 102.6875 -105.941406 100.410156 -115.082031 95.640625 -121.4375 C 90.867188 -127.800781 83.75 -131.128906 74.28125 -131.421875 Z M 56.921875 -131.53125 "/></g></g></g><g fill="#000000" fill-opacity="1"><g transform="translate(80.443252, 331.976314)"><g><path d="M 8.28125 -11.21875 C 7.476562 -11.21875 6.753906 -10.972656 6.109375 -10.484375 C 5.460938 -9.992188 4.941406 -9.265625 4.546875 -8.296875 C 4.160156 -7.335938 3.96875 -6.304688 3.96875 -5.203125 C 3.96875 -4.179688 4.175781 -3.425781 4.59375 -2.9375 C 5.007812 -2.445312 5.675781 -2.203125 6.59375 -2.203125 C 7.488281 -2.203125 8.519531 -2.4375 9.6875 -2.90625 L 9.6875 -0.515625 C 8.46875 -0.046875 7.25 0.1875 6.03125 0.1875 C 4.476562 0.1875 3.269531 -0.265625 2.40625 -1.171875 C 1.550781 -2.085938 1.125 -3.382812 1.125 -5.0625 C 1.125 -6.65625 1.441406 -8.125 2.078125 -9.46875 C 2.710938 -10.8125 3.5625 -11.832031 4.625 -12.53125 C 5.6875 -13.226562 6.90625 -13.578125 8.28125 -13.578125 C 9.039062 -13.578125 9.71875 -13.507812 10.3125 -13.375 C 10.90625 -13.238281 11.539062 -12.988281 12.21875 -12.625 L 11.125 -10.34375 C 10.476562 -10.695312 9.945312 -10.929688 9.53125 -11.046875 C 9.113281 -11.160156 8.695312 -11.21875 8.28125 -11.21875 Z M 8.28125 -11.21875 "/></g></g><g transform="translate(91.902584, 331.976314)"><g><path d="M 13.09375 -8.578125 C 13.09375 -6.847656 12.789062 -5.300781 12.1875 -3.9375 C 11.582031 -2.582031 10.753906 -1.554688 9.703125 -0.859375 C 8.660156 -0.160156 7.457031 0.1875 6.09375 0.1875 C 4.53125 0.1875 3.3125 -0.257812 2.4375 -1.15625 C 1.5625 -2.0625 1.125 -3.3125 1.125 -4.90625 C 1.125 -6.53125 1.425781 -8.019531 2.03125 -9.375 C 2.632812 -10.726562 3.46875 -11.765625 4.53125 -12.484375 C 5.59375 -13.210938 6.816406 -13.578125 8.203125 -13.578125 C 9.753906 -13.578125 10.957031 -13.140625 11.8125 -12.265625 C 12.664062 -11.390625 13.09375 -10.160156 13.09375 -8.578125 Z M 7.984375 -11.21875 C 7.242188 -11.21875 6.5625 -10.9375 5.9375 -10.375 C 5.320312 -9.820312 4.835938 -9.054688 4.484375 -8.078125 C 4.140625 -7.109375 3.96875 -6.050781 3.96875 -4.90625 C 3.96875 -4.007812 4.171875 -3.332031 4.578125 -2.875 C 4.984375 -2.425781 5.554688 -2.203125 6.296875 -2.203125 C 7.035156 -2.203125 7.707031 -2.460938 8.3125 -2.984375 C 8.914062 -3.515625 9.390625 -4.265625 9.734375 -5.234375 C 10.078125 -6.210938 10.25 -7.300781 10.25 -8.5 C 10.25 -9.375 10.050781 -10.046875 9.65625 -10.515625 C 9.257812 -10.984375 8.703125 -11.21875 7.984375 -11.21875 Z M 7.984375 -11.21875 "/></g></g><g transform="translate(105.57513, 331.976314)"><g><path d="M 11.40625 0 L 8.28125 0 L 5.015625 -10.125 L 4.96875 -10.125 L 4.9375 -9.828125 C 4.738281 -8.503906 4.535156 -7.328125 4.328125 -6.296875 L 3 0 L 0.484375 0 L 3.3125 -13.375 L 6.578125 -13.375 L 9.6875 -3.515625 L 9.71875 -3.515625 C 9.789062 -3.984375 9.910156 -4.644531 10.078125 -5.5 C 10.242188 -6.363281 10.796875 -8.988281 11.734375 -13.375 L 14.234375 -13.375 Z M 11.40625 0 "/></g></g><g transform="translate(119.714098, 331.976314)"><g><path d="M 5.21875 0 L 2.4375 0 L 4.75 -11.015625 L 1.53125 -11.015625 L 2.046875 -13.375 L 11.28125 -13.375 L 10.78125 -11.015625 L 7.546875 -11.015625 Z M 5.21875 0 "/></g></g><g transform="translate(129.655274, 331.976314)"><g><path d="M 4.84375 -7.4375 L 5.5625 -7.4375 C 6.363281 -7.4375 6.984375 -7.609375 7.421875 -7.953125 C 7.867188 -8.304688 8.09375 -8.835938 8.09375 -9.546875 C 8.09375 -10.046875 7.945312 -10.421875 7.65625 -10.671875 C 7.375 -10.921875 6.921875 -11.046875 6.296875 -11.046875 L 5.609375 -11.046875 Z M 4.359375 -5.125 L 3.28125 0 L 0.484375 0 L 3.3125 -13.375 L 6.59375 -13.375 C 8.039062 -13.375 9.125 -13.0625 9.84375 -12.4375 C 10.570312 -11.8125 10.9375 -10.898438 10.9375 -9.703125 C 10.9375 -8.742188 10.679688 -7.914062 10.171875 -7.21875 C 9.671875 -6.53125 8.945312 -6.019531 8 -5.6875 L 10.375 0 L 7.34375 0 L 5.453125 -5.125 Z M 4.359375 -5.125 "/></g></g><g transform="translate(141.059733, 331.976314)"><g><path d="M 13.09375 -8.578125 C 13.09375 -6.847656 12.789062 -5.300781 12.1875 -3.9375 C 11.582031 -2.582031 10.753906 -1.554688 9.703125 -0.859375 C 8.660156 -0.160156 7.457031 0.1875 6.09375 0.1875 C 4.53125 0.1875 3.3125 -0.257812 2.4375 -1.15625 C 1.5625 -2.0625 1.125 -3.3125 1.125 -4.90625 C 1.125 -6.53125 1.425781 -8.019531 2.03125 -9.375 C 2.632812 -10.726562 3.46875 -11.765625 4.53125 -12.484375 C 5.59375 -13.210938 6.816406 -13.578125 8.203125 -13.578125 C 9.753906 -13.578125 10.957031 -13.140625 11.8125 -12.265625 C 12.664062 -11.390625 13.09375 -10.160156 13.09375 -8.578125 Z M 7.984375 -11.21875 C 7.242188 -11.21875 6.5625 -10.9375 5.9375 -10.375 C 5.320312 -9.820312 4.835938 -9.054688 4.484375 -8.078125 C 4.140625 -7.109375 3.96875 -6.050781 3.96875 -4.90625 C 3.96875 -4.007812 4.171875 -3.332031 4.578125 -2.875 C 4.984375 -2.425781 5.554688 -2.203125 6.296875 -2.203125 C 7.035156 -2.203125 7.707031 -2.460938 8.3125 -2.984375 C 8.914062 -3.515625 9.390625 -4.265625 9.734375 -5.234375 C 10.078125 -6.210938 10.25 -7.300781 10.25 -8.5 C 10.25 -9.375 10.050781 -10.046875 9.65625 -10.515625 C 9.257812 -10.984375 8.703125 -11.21875 7.984375 -11.21875 Z M 7.984375 -11.21875 "/></g></g><g transform="translate(154.732279, 331.976314)"><g><path d="M 0.484375 0 L 3.3125 -13.375 L 6.109375 -13.375 L 3.765625 -2.34375 L 8.453125 -2.34375 L 7.953125 0 Z M 0.484375 0 "/></g></g><g transform="translate(164.435672, 331.976314)"><g><path d="M 7.953125 0 L 0.484375 0 L 3.3125 -13.375 L 10.796875 -13.375 L 10.296875 -11.046875 L 5.609375 -11.046875 L 5 -8.109375 L 9.375 -8.109375 L 8.859375 -5.796875 L 4.5 -5.796875 L 3.765625 -2.34375 L 8.453125 -2.34375 Z M 7.953125 0 "/></g></g><g transform="translate(174.587195, 331.976314)"><g/></g><g transform="translate(179.452609, 331.976314)"><g><path d="M 12.109375 -8.3125 C 12.109375 -6.601562 11.804688 -5.117188 11.203125 -3.859375 C 10.609375 -2.597656 9.742188 -1.640625 8.609375 -0.984375 C 7.484375 -0.328125 6.148438 0 4.609375 0 L 0.484375 0 L 3.3125 -13.375 L 6.9375 -13.375 C 8.582031 -13.375 9.851562 -12.9375 10.75 -12.0625 C 11.65625 -11.1875 12.109375 -9.9375 12.109375 -8.3125 Z M 4.734375 -2.34375 C 5.640625 -2.34375 6.425781 -2.570312 7.09375 -3.03125 C 7.769531 -3.5 8.296875 -4.179688 8.671875 -5.078125 C 9.046875 -5.984375 9.234375 -7.015625 9.234375 -8.171875 C 9.234375 -9.109375 9.007812 -9.820312 8.5625 -10.3125 C 8.125 -10.800781 7.492188 -11.046875 6.671875 -11.046875 L 5.609375 -11.046875 L 3.765625 -2.34375 Z M 4.734375 -2.34375 "/></g></g><g transform="translate(192.128294, 331.976314)"><g><path d="M 7.953125 0 L 0.484375 0 L 3.3125 -13.375 L 10.796875 -13.375 L 10.296875 -11.046875 L 5.609375 -11.046875 L 5 -8.109375 L 9.375 -8.109375 L 8.859375 -5.796875 L 4.5 -5.796875 L 3.765625 -2.34375 L 8.453125 -2.34375 Z M 7.953125 0 "/></g></g><g transform="translate(202.279817, 331.976314)"><g/></g><g transform="translate(207.145232, 331.976314)"><g><path d="M 12.109375 -8.3125 C 12.109375 -6.601562 11.804688 -5.117188 11.203125 -3.859375 C 10.609375 -2.597656 9.742188 -1.640625 8.609375 -0.984375 C 7.484375 -0.328125 6.148438 0 4.609375 0 L 0.484375 0 L 3.3125 -13.375 L 6.9375 -13.375 C 8.582031 -13.375 9.851562 -12.9375 10.75 -12.0625 C 11.65625 -11.1875 12.109375 -9.9375 12.109375 -8.3125 Z M 4.734375 -2.34375 C 5.640625 -2.34375 6.425781 -2.570312 7.09375 -3.03125 C 7.769531 -3.5 8.296875 -4.179688 8.671875 -5.078125 C 9.046875 -5.984375 9.234375 -7.015625 9.234375 -8.171875 C 9.234375 -9.109375 9.007812 -9.820312 8.5625 -10.3125 C 8.125 -10.800781 7.492188 -11.046875 6.671875 -11.046875 L 5.609375 -11.046875 L 3.765625 -2.34375 Z M 4.734375 -2.34375 "/></g></g><g transform="translate(219.820917, 331.976314)"><g><path d="M 7.953125 0 L 0.484375 0 L 3.3125 -13.375 L 10.796875 -13.375 L 10.296875 -11.046875 L 5.609375 -11.046875 L 5 -8.109375 L 9.375 -8.109375 L 8.859375 -5.796875 L 4.5 -5.796875 L 3.765625 -2.34375 L 8.453125 -2.34375 Z M 7.953125 0 "/></g></g><g transform="translate(229.97244, 331.976314)"><g><path d="M 8.65625 -3.953125 C 8.65625 -2.679688 8.203125 -1.671875 7.296875 -0.921875 C 6.398438 -0.179688 5.175781 0.1875 3.625 0.1875 C 2.28125 0.1875 1.195312 -0.0859375 0.375 -0.640625 L 0.375 -3.140625 C 1.550781 -2.484375 2.644531 -2.15625 3.65625 -2.15625 C 4.332031 -2.15625 4.863281 -2.285156 5.25 -2.546875 C 5.632812 -2.804688 5.828125 -3.160156 5.828125 -3.609375 C 5.828125 -3.867188 5.785156 -4.097656 5.703125 -4.296875 C 5.617188 -4.492188 5.5 -4.675781 5.34375 -4.84375 C 5.195312 -5.019531 4.820312 -5.335938 4.21875 -5.796875 C 3.375 -6.398438 2.78125 -6.992188 2.4375 -7.578125 C 2.101562 -8.171875 1.9375 -8.8125 1.9375 -9.5 C 1.9375 -10.28125 2.125 -10.976562 2.5 -11.59375 C 2.875 -12.21875 3.410156 -12.703125 4.109375 -13.046875 C 4.804688 -13.390625 5.609375 -13.5625 6.515625 -13.5625 C 7.835938 -13.5625 9.050781 -13.257812 10.15625 -12.65625 L 9.15625 -10.53125 C 8.207031 -10.976562 7.328125 -11.203125 6.515625 -11.203125 C 6.015625 -11.203125 5.601562 -11.0625 5.28125 -10.78125 C 4.957031 -10.507812 4.796875 -10.148438 4.796875 -9.703125 C 4.796875 -9.328125 4.894531 -9 5.09375 -8.71875 C 5.289062 -8.445312 5.742188 -8.082031 6.453125 -7.625 C 7.191406 -7.132812 7.742188 -6.59375 8.109375 -6 C 8.472656 -5.414062 8.65625 -4.734375 8.65625 -3.953125 Z M 8.65625 -3.953125 "/></g></g><g transform="translate(239.895325, 331.976314)"><g><path d="M 4.78125 -7.078125 L 5.28125 -7.078125 C 6.15625 -7.078125 6.835938 -7.285156 7.328125 -7.703125 C 7.828125 -8.128906 8.078125 -8.695312 8.078125 -9.40625 C 8.078125 -10.5 7.484375 -11.046875 6.296875 -11.046875 L 5.609375 -11.046875 Z M 10.890625 -9.484375 C 10.890625 -8.003906 10.367188 -6.84375 9.328125 -6 C 8.296875 -5.164062 6.875 -4.75 5.0625 -4.75 L 4.265625 -4.75 L 3.28125 0 L 0.484375 0 L 3.3125 -13.375 L 6.40625 -13.375 C 7.875 -13.375 8.988281 -13.046875 9.75 -12.390625 C 10.507812 -11.742188 10.890625 -10.773438 10.890625 -9.484375 Z M 10.890625 -9.484375 "/></g></g><g transform="translate(250.760198, 331.976314)"><g><path d="M 7.953125 0 L 0.484375 0 L 3.3125 -13.375 L 10.796875 -13.375 L 10.296875 -11.046875 L 5.609375 -11.046875 L 5 -8.109375 L 9.375 -8.109375 L 8.859375 -5.796875 L 4.5 -5.796875 L 3.765625 -2.34375 L 8.453125 -2.34375 Z M 7.953125 0 "/></g></g><g transform="translate(260.911721, 331.976314)"><g><path d="M 8.65625 -3.953125 C 8.65625 -2.679688 8.203125 -1.671875 7.296875 -0.921875 C 6.398438 -0.179688 5.175781 0.1875 3.625 0.1875 C 2.28125 0.1875 1.195312 -0.0859375 0.375 -0.640625 L 0.375 -3.140625 C 1.550781 -2.484375 2.644531 -2.15625 3.65625 -2.15625 C 4.332031 -2.15625 4.863281 -2.285156 5.25 -2.546875 C 5.632812 -2.804688 5.828125 -3.160156 5.828125 -3.609375 C 5.828125 -3.867188 5.785156 -4.097656 5.703125 -4.296875 C 5.617188 -4.492188 5.5 -4.675781 5.34375 -4.84375 C 5.195312 -5.019531 4.820312 -5.335938 4.21875 -5.796875 C 3.375 -6.398438 2.78125 -6.992188 2.4375 -7.578125 C 2.101562 -8.171875 1.9375 -8.8125 1.9375 -9.5 C 1.9375 -10.28125 2.125 -10.976562 2.5 -11.59375 C 2.875 -12.21875 3.410156 -12.703125 4.109375 -13.046875 C 4.804688 -13.390625 5.609375 -13.5625 6.515625 -13.5625 C 7.835938 -13.5625 9.050781 -13.257812 10.15625 -12.65625 L 9.15625 -10.53125 C 8.207031 -10.976562 7.328125 -11.203125 6.515625 -11.203125 C 6.015625 -11.203125 5.601562 -11.0625 5.28125 -10.78125 C 4.957031 -10.507812 4.796875 -10.148438 4.796875 -9.703125 C 4.796875 -9.328125 4.894531 -9 5.09375 -8.71875 C 5.289062 -8.445312 5.742188 -8.082031 6.453125 -7.625 C 7.191406 -7.132812 7.742188 -6.59375 8.109375 -6 C 8.472656 -5.414062 8.65625 -4.734375 8.65625 -3.953125 Z M 8.65625 -3.953125 "/></g></g><g transform="translate(270.834606, 331.976314)"><g><path d="M 7.703125 -3.1875 L 3.375 -3.1875 L 1.796875 0 L -1.125 0 L 5.875 -13.421875 L 9.296875 -13.421875 L 10.640625 0 L 7.921875 0 Z M 7.5625 -5.5625 L 7.328125 -8.765625 C 7.265625 -9.566406 7.234375 -10.335938 7.234375 -11.078125 L 7.234375 -11.40625 C 6.960938 -10.675781 6.628906 -9.898438 6.234375 -9.078125 L 4.515625 -5.5625 Z M 7.5625 -5.5625 "/></g></g><g transform="translate(282.59574, 331.976314)"><g><path d="M 8.65625 -3.953125 C 8.65625 -2.679688 8.203125 -1.671875 7.296875 -0.921875 C 6.398438 -0.179688 5.175781 0.1875 3.625 0.1875 C 2.28125 0.1875 1.195312 -0.0859375 0.375 -0.640625 L 0.375 -3.140625 C 1.550781 -2.484375 2.644531 -2.15625 3.65625 -2.15625 C 4.332031 -2.15625 4.863281 -2.285156 5.25 -2.546875 C 5.632812 -2.804688 5.828125 -3.160156 5.828125 -3.609375 C 5.828125 -3.867188 5.785156 -4.097656 5.703125 -4.296875 C 5.617188 -4.492188 5.5 -4.675781 5.34375 -4.84375 C 5.195312 -5.019531 4.820312 -5.335938 4.21875 -5.796875 C 3.375 -6.398438 2.78125 -6.992188 2.4375 -7.578125 C 2.101562 -8.171875 1.9375 -8.8125 1.9375 -9.5 C 1.9375 -10.28125 2.125 -10.976562 2.5 -11.59375 C 2.875 -12.21875 3.410156 -12.703125 4.109375 -13.046875 C 4.804688 -13.390625 5.609375 -13.5625 6.515625 -13.5625 C 7.835938 -13.5625 9.050781 -13.257812 10.15625 -12.65625 L 9.15625 -10.53125 C 8.207031 -10.976562 7.328125 -11.203125 6.515625 -11.203125 C 6.015625 -11.203125 5.601562 -11.0625 5.28125 -10.78125 C 4.957031 -10.507812 4.796875 -10.148438 4.796875 -9.703125 C 4.796875 -9.328125 4.894531 -9 5.09375 -8.71875 C 5.289062 -8.445312 5.742188 -8.082031 6.453125 -7.625 C 7.191406 -7.132812 7.742188 -6.59375 8.109375 -6 C 8.472656 -5.414062 8.65625 -4.734375 8.65625 -3.953125 Z M 8.65625 -3.953125 "/></g></g></g></svg>